HIERARCHY
ROOT Hips
{
	OFFSET	0.000000	0.000000	0.000000
	CHANNELS 6 Xposition Yposition Zposition Zrotation Xrotation Yrotation
	JOINT LeftUpLeg
	{
		OFFSET	12.811937	-7.635976	0.557276
		CHANNELS 3 Zrotation Xrotation Yrotation
		JOINT LeftLeg
		{
			OFFSET	-0.429270	-42.206159	-1.204951
			CHANNELS 3 Zrotation Xrotation Yrotation
			JOINT LeftFoot
			{
				OFFSET	-2.112259	-42.464481	-3.973220
				CHANNELS 3 Zrotation Xrotation Yrotation
				JOINT LeftFootHeel
				{
					OFFSET	0.387196	-5.329707	-3.419729
					CHANNELS 3 Zrotation Xrotation Yrotation
					End Site
					{
						OFFSET	0.327567	-0.000003	16.505428
					}
				}
			}
		}
	}
	JOINT RightUpLeg
	{
		OFFSET	-12.811937	-7.635976	0.557276
		CHANNELS 3 Zrotation Xrotation Yrotation
		JOINT RightLeg
		{
			OFFSET	0.429270	-42.206159	-1.204951
			CHANNELS 3 Zrotation Xrotation Yrotation
			JOINT RightFoot
			{
				OFFSET	2.112259	-42.464481	-3.973220
				CHANNELS 3 Zrotation Xrotation Yrotation
				JOINT RightFootHeel
				{
					OFFSET	-0.387198	-5.329707	-3.419729
					CHANNELS 3 Zrotation Xrotation Yrotation
					End Site
					{
						OFFSET	-0.327566	-0.000003	16.505428
					}
				}
			}
		}
	}
	JOINT Spine
	{
		OFFSET	0.000000	13.731315	-1.007646
		CHANNELS 3 Zrotation Xrotation Yrotation
		JOINT Spine1
		{
			OFFSET	0.000000	12.091746	-0.604589
			CHANNELS 3 Zrotation Xrotation Yrotation
			JOINT LeftShoulder
			{
				OFFSET	5.746115	20.990027	-0.833816
				CHANNELS 3 Zrotation Xrotation Yrotation
				JOINT LeftArm
				{
					OFFSET	10.881538	-1.359258	0.219250
					CHANNELS 3 Zrotation Xrotation Yrotation
					JOINT LeftForeArm
					{
						OFFSET	4.390314	-31.537147	0.202818
						CHANNELS 3 Zrotation Xrotation Yrotation
						JOINT LeftHand
						{
							OFFSET	3.168650	-24.865023	5.373370
							CHANNELS 3 Zrotation Xrotation Yrotation
							End Site
							{
								OFFSET	1.457528	-10.806075	2.170267
							}
						}
					}
				}
			}
			JOINT RightShoulder
			{
				OFFSET	-5.746115	20.990027	-0.833816
				CHANNELS 3 Zrotation Xrotation Yrotation
				JOINT RightArm
				{
					OFFSET	-10.881538	-1.359258	0.219250
					CHANNELS 3 Zrotation Xrotation Yrotation
					JOINT RightForeArm
					{
						OFFSET	-4.390314	-31.537147	0.202818
						CHANNELS 3 Zrotation Xrotation Yrotation
						JOINT RightHand
						{
							OFFSET	-3.168650	-24.865023	5.373370
							CHANNELS 3 Zrotation Xrotation Yrotation
							End Site
							{
								OFFSET	-1.457528	-10.806075	2.170267
							}
						}
					}
				}
			}
			JOINT Neck
			{
				OFFSET	0.000000	27.075639	0.680489
				CHANNELS 3 Zrotation Xrotation Yrotation
				JOINT Head
				{
					OFFSET	0.000000	12.391287	1.239129
					CHANNELS 3 Zrotation Xrotation Yrotation
					End Site
					{
						OFFSET	0.000000	13.818691	-0.105853
					}
				}
			}
		}
	}
}
MOTION
Frames:    6
Frame Time: 0.016667
1.708499	100.371343	-3.199430	-1.246025	-2.581655	-5.722589	-0.699514	3.092481	-5.900689	0.145508	-0.411405	2.602015	1.028930	0.491859	9.174457	0.	0.	0.	0.009451	0.649281	2.273206	-0.823355	1.760047	-1.576423	0.139534	-0.031910	2.523237	0.	0.	0.	0.000000	0.000000	0.000000	1.927601	10.873286	-0.107922	0.007759	-9.317502	-6.004411	16.738216	-44.287510	-28.880404	-84.873840	-37.091206	-79.600716	-38.342812	-0.180492	-23.346565	-0.560114	-5.154070	-0.867600	2.606984	-42.809292	29.774691	84.371536	-1.973453	67.780251	-41.308495	-55.457092	57.989193	-0.663243	-3.961575	1.730605	-3.102632	0.952036	-5.832777	
1.701518	100.371023	-3.165394	-1.239667	-2.584490	-5.600685	-0.694838	3.109463	-5.929793	0.144339	-0.426174	2.536005	1.026403	0.492314	9.147594	0.	0.	0.	-0.001441	0.687022	2.223531	-0.813803	1.724215	-1.626859	0.136452	-0.030940	2.501156	0.	0.	0.	0.000000	-0.000001	0.000001	1.925214	10.865893	-0.095910	-0.002186	-9.310922	-6.004388	16.761602	-44.265465	-28.870161	-84.958977	-37.049774	-79.677910	-38.275608	-0.140643	-23.332489	-0.550144	-5.143060	-0.863664	2.604866	-42.822403	29.782234	84.387421	-1.961918	67.747856	-41.326088	-55.474865	57.967426	-0.638665	-3.950274	1.722778	-3.123008	0.931086	-5.860139	
1.697989	100.370839	-3.148016	-1.236326	-2.585926	-5.538408	-0.692531	3.118120	-5.943918	0.143784	-0.433721	2.501988	1.025070	0.492543	9.133427	0.	0.	0.	-0.007432	0.707816	2.199552	-0.810129	1.704963	-1.665264	0.136452	-0.030940	2.501156	0.	0.	0.	0.000000	0.000000	-0.000001	1.924136	10.862268	-0.092032	-0.007344	-9.307285	-6.002969	16.771982	-44.255402	-28.863131	-85.001579	-37.024754	-79.717041	-38.246731	-0.122276	-23.307560	-0.533677	-5.135087	-0.862906	2.596184	-42.829639	29.790390	84.393364	-1.956735	67.733032	-41.333595	-55.484810	57.957550	-0.625681	-3.944571	1.725161	-3.133694	0.919425	-5.877105	
1.690728	100.370481	-3.112150	-1.229538	-2.589102	-5.410152	-0.687565	3.136333	-5.972236	0.142494	-0.449455	2.430898	1.022351	0.493036	9.104498	0.	0.	0.	-0.020041	0.750218	2.157865	-0.799182	1.665072	-1.732399	0.133681	-0.030064	2.481433	0.	0.	0.	0.000000	0.000000	-0.000001	1.922517	10.855227	-0.088553	-0.020958	-9.300217	-5.996273	16.794889	-44.240162	-28.848888	-85.088501	-36.970474	-79.792221	-38.193947	-0.089145	-23.256098	-0.534807	-5.127216	-0.853610	2.601263	-42.831959	29.791059	84.405937	-1.949457	67.707733	-41.345924	-55.501984	57.942120	-0.599038	-3.933079	1.735308	-3.131574	0.892050	-5.905803	
1.687057	100.370277	-3.093926	-1.225941	-2.590710	-5.344471	-0.685184	3.145420	-5.987825	0.141890	-0.457289	2.395722	1.020944	0.493283	9.089553	0.	0.	0.	-0.025809	0.770315	2.139061	-0.791766	1.645388	-1.751687	0.129770	-0.028815	2.453649	0.	0.	0.	0.000000	-0.000001	0.000000	1.921762	10.851711	-0.088258	-0.029916	-9.295921	-5.991231	16.805206	-44.231575	-28.845837	-85.130814	-36.943813	-79.831345	-38.169025	-0.074749	-23.228382	-0.539519	-5.122210	-0.847399	2.606732	-42.832680	29.787508	84.411583	-1.943631	67.696541	-41.353565	-55.510197	57.935345	-0.577553	-3.925065	1.808238	-3.139457	0.879950	-5.986375	
1.672377	100.369095	-3.021364	-1.210002	-2.596778	-5.084208	-0.676955	3.181713	-6.042681	0.139465	-0.489238	2.252726	1.015067	0.494348	9.027062	0.	0.	0.	-0.049009	0.849786	2.076672	-0.759359	1.580447	-1.926243	0.110887	-0.036900	2.429583	0.	0.	0.	0.000000	0.000000	0.000001	1.918938	10.837471	-0.091492	-0.069497	-9.278640	-5.962865	16.844578	-44.201801	-28.850254	-85.294281	-36.850384	-79.978760	-38.075932	-0.019266	-23.117268	-0.527300	-5.093596	-0.825077	2.614320	-42.836483	29.789566	84.426155	-1.923948	67.656433	-41.373955	-55.538765	57.909882	-0.536393	-3.905787	1.746215	-3.149512	0.823527	-5.945930	
